<?xml version="1.0" encoding="utf-8"?>
<!-- Generator: Adobe Illustrator 17.1.0, SVG Export Plug-In . SVG Version: 6.00 Build 0)  -->
<!DOCTYPE svg PUBLIC "-//W3C//DTD SVG 1.1//EN" "http://www.w3.org/Graphics/SVG/1.1/DTD/svg11.dtd">
<svg version="1.1" id="Capa_1" xmlns="http://www.w3.org/2000/svg" xmlns:xlink="http://www.w3.org/1999/xlink" x="0px" y="0px"
	 width="250px" height="250px" viewBox="0 0 250 250" enable-background="new 0 0 250 250" xml:space="preserve">
<rect fill="#CCCCCC" width="250" height="250"/>
<g>
	<g>
		
			<radialGradient id="SVGID_1_" cx="137.3772" cy="126.5539" r="53.1856" gradientTransform="matrix(0.6254 0.7803 -0.7803 0.6254 89.5356 -87.6695)" gradientUnits="userSpaceOnUse">
			<stop  offset="0" style="stop-color:#869095"/>
			<stop  offset="1" style="stop-color:#363F43"/>
		</radialGradient>
		<path fill="url(#SVGID_1_)" d="M198.33,63.3c0.05-0.6,0.12-1.28,0.19-2.09c0.31-5.35-0.16-9.77-0.54-13.33
			c-1.73-10.97-4.87-17.03-5-17.28c-0.05-0.09-0.14-0.21-0.18-0.31c-0.22-0.02-0.52-0.03-0.75-0.04c-1.13-2.93-1.25-3.24-1.97-4.57
			c-1.45-0.72-1.2-2.49-2.18-3.51c-0.38,0.21-0.93,0.41-1.35,0.48l0.6-0.32c-0.67-0.15-1.59-0.22-2.28-0.28
			c-0.34-2.47-0.34-2.47-0.73-2.98c-0.18,0.17-0.42,0.4-0.59,0.57c-3.82-0.25-3.82-0.25-5.45,1.64l-1.32,1.6
			c1.27-2.08,1.27-2.08,0.92-3.42c-1.15,0.02-1.15,0.02-21.06,19.44l0.04,0.01c-9.07,7.37-17.51,15.48-26.47,22.98
			c0.88-0.44,1.75-0.89,2.6-1.39c-1.35,1-2.66,1.92-3.93,2.76c-0.53-0.04-1.02,0.07-1.56,0.23c-0.23,0.06-0.45,0.15-0.67,0.25
			c-0.31,0.13-0.57,0.17-0.88,0.26c-0.58,0.17-1.08,0.57-1.59,0.89c-0.09,0.05-0.15,0.12-0.23,0.18
			c-7.01,2.83-13.32,7.37-20.81,9.05c-0.12,0.03-12.57,2.6-21.64-0.04c-2.82-0.82-16.64-6.04-13.46-28.13l-0.32,1.93
			c-0.69,5.27-0.69,8.01-0.64,11.03l0.01,0.27c0.27,5.34,0.45,6.34,1.44,11.9c1.83,7.76,3.18,10.63,5.86,16.33
			c6.89,12.72,13.06,17.12,13.31,17.3c6.09,4.26,13.73,3.46,20.28,6.22c-0.8,0.42-0.8,0.42-2.11,0.37
			c5.52,2.44,11.51,0.74,17.16,1.96c-0.57,0.67-0.88,1.04-2.57,1.24c0.07,0.21,0.17,0.5,0.24,0.71c-7.82,2.24-13.77,1.42-18.14-0.15
			c0.58,0.3,1.15,0.61,1.7,0.95c-1.27-0.36-1.89-0.54-3.92-1.61l-0.23-0.13l0.56,0.32c9.1,5.03,26.98,6.76,60.47-13.65
			c0.04,0.04,0.09,0.1,0.13,0.14c-0.17,0.19-20.94,18.83-47.22,17.67c0.18,0.04,18.96,3.34,50.58-16.68
			c7.11-4.72,16.84-11.18,24.1-20.39c2.08-2.63,4.03-5.11,7.69-7.57v0.02c0.28-1.06,0.58-2.47,0.83-3.54
			c0.43-2.21,0.64-3.37,0.81-4.82L198.33,63.3z"/>
		
			<radialGradient id="SVGID_2_" cx="141.9897" cy="31.9748" r="0.0428" gradientTransform="matrix(0.6254 0.7803 -0.7803 0.6254 89.5356 -87.6695)" gradientUnits="userSpaceOnUse">
			<stop  offset="0" style="stop-color:#869095"/>
			<stop  offset="1" style="stop-color:#363F43"/>
		</radialGradient>
		<path fill="url(#SVGID_2_)" d="M153.42,43.09c0.36-0.29,0.76-0.61,1.18-0.94c-0.06,0.05-0.12,0.11-0.18,0.16
			c-0.32,0.26-0.64,0.51-0.91,0.73L153.42,43.09z"/>
	</g>
	<g>
		<radialGradient id="SVGID_3_" cx="190.3185" cy="165.3557" r="57.6748" gradientUnits="userSpaceOnUse">
			<stop  offset="0" style="stop-color:#E3007D"/>
			<stop  offset="1" style="stop-color:#690D46"/>
		</radialGradient>
		<path fill="url(#SVGID_3_)" d="M160.38,220.43c4.47,2.95,8.54,4.75,11.82,6.19c10.36,3.99,17.17,4.29,17.46,4.3
			c0.11,0.01,0.25-0.01,0.35,0c0.12-0.19,0.28-0.44,0.41-0.63c3.11,0.48,3.43,0.53,4.94,0.58c1.35-0.89,2.76,0.21,4.14-0.13
			c0.01-0.44,0.11-1.01,0.26-1.4l-0.03,0.67c0.48-0.51,0.99-1.27,1.39-1.84c2.3,0.94,2.3,0.94,2.94,0.86
			c-0.05-0.24-0.13-0.56-0.19-0.8c2.11-3.18,2.11-3.18,1.3-5.53l-0.72-1.94c1.17,2.13,1.17,2.13,2.51,2.49
			c0.56-1.01,0.56-1.01-6.31-27.95l-0.04,0.03c-1.83-11.54-4.64-22.91-6.66-34.41c0,0.05,0,0.11,0,0.16
			c-0.08-0.9-0.15-1.77-0.2-2.62c0.11-0.26,0.19-0.55,0.26-0.85c0.07-0.23,0.1-0.48,0.13-0.72c0.04-0.32,0.13-0.57,0.21-0.89
			c0.15-0.59,0.05-1.22,0.03-1.82c0-0.1-0.03-0.19-0.04-0.29c1.05-7.48,0.28-15.21,2.57-22.53c0.04-0.12,4.03-12.2,10.85-18.72
			c2.13-2.03,13.55-11.39,31.09,2.41l-1.5-1.24c-4.23-3.23-6.59-4.61-9.24-6.07l-0.23-0.13c-4.76-2.44-5.72-2.78-11.02-4.7
			c-7.64-2.3-10.8-2.57-17.08-3.1c-14.45-0.38-21.35,2.75-21.63,2.89c-6.73,3.14-9.86,10.16-15.53,14.46
			c0.04-0.91,0.04-0.91,0.75-2.01c-4.87,3.56-6.39,9.6-10.28,13.88c-0.29-0.83-0.45-1.29,0.21-2.85c-0.21-0.04-0.51-0.09-0.73-0.15
			c1.97-7.89,5.65-12.63,9.2-15.63c-0.56,0.35-1.11,0.69-1.68,1c0.94-0.91,1.42-1.37,3.36-2.59l0.22-0.13l-0.55,0.33
			c-8.91,5.36-19.35,19.99-18.42,59.2c-0.06,0-0.14,0.02-0.19,0.03c-0.09-0.23-5.85-27.54,8.3-49.72
			c-0.13,0.13-12.37,14.75-10.85,52.14c0.53,8.52,1.27,20.17,5.6,31.07c1.24,3.11,2.42,6.05,2.72,10.45l-0.02-0.01
			c0.77,0.77,1.85,1.75,2.64,2.48L160.38,220.43z"/>
		<path fill="#F3E10F" d="M141.38,160c0.03,0.31,0.03,0.31,0.31,3.96c0.26,3.36,0.42,6.72,0.71,10.08c0.01,0.2,0.03,0.45,0.05,0.64
			C141.32,168.52,140.85,164.57,141.38,160z"/>
	</g>
	<radialGradient id="SVGID_4_" cx="74.4205" cy="165.3576" r="63.9217" gradientUnits="userSpaceOnUse">
		<stop  offset="0" style="stop-color:#43AA34"/>
		<stop  offset="0.33" style="stop-color:#40A834"/>
		<stop  offset="0.5437" style="stop-color:#38A334"/>
		<stop  offset="0.7245" style="stop-color:#299A35"/>
		<stop  offset="0.8858" style="stop-color:#148C35"/>
		<stop  offset="1" style="stop-color:#008036"/>
	</radialGradient>
	<path fill="url(#SVGID_4_)" d="M91.93,229.66c0.13-0.05,0.26-0.11,0.38-0.15l-1.25,0.43L91.93,229.66z M137.33,172.84
		c0.15-1.95,0.37-4.8-0.16-8.18c0.05,2.76,0.37,5.53,0.15,8.3L137.33,172.84z M41.8,105.26c-4.94,2.34-8.67,4.95-11.66,7.04
		c-8.97,6.94-12.84,12.73-13,12.97c-0.06,0.09-0.12,0.22-0.18,0.31c0.09,0.2,0.23,0.48,0.33,0.69c-2.06,2.46-2.28,2.72-3.13,4.01
		c0.06,1.65-1.63,2.31-2.07,3.68c0.37,0.24,0.82,0.62,1.09,0.97l-0.57-0.38c0.19,0.68,0.58,1.54,0.87,2.18
		c-2.04,1.51-2.04,1.51-2.31,2.12c0.24,0.08,0.56,0.18,0.8,0.25c1.65,3.54,1.65,3.54,4.15,4.07l2.08,0.4
		c-2.48-0.1-2.48-0.1-3.51,0.87c0.58,1.02,0.58,1.02,27.75,9.27l-0.01-0.04c11.05,4.5,22.46,8.06,33.57,12.39
		c-0.23-0.16-0.48-0.31-0.71-0.46c1.01,0.49,1.98,0.98,2.89,1.48c0.2,0.27,0.43,0.53,0.69,0.78c0.18,0.18,0.36,0.34,0.56,0.48
		c0.26,0.21,0.42,0.43,0.66,0.67c0.44,0.44,1.03,0.69,1.58,0.98c0.09,0.04,0.18,0.08,0.27,0.11c5.98,4.88,13.14,8.3,18.33,14.17
		c0.07,0.09,8.52,9.96,10.61,19.38c0.65,2.92,2.78,17.86-18.56,25.87l1.89-0.66c5.06-1.99,7.51-3.32,10.19-4.85l0.24-0.14
		c4.64-2.87,5.45-3.52,9.93-7.14c6.05-5.46,7.95-8.07,11.73-13.27c7.98-12.42,8.89-20.1,8.93-20.43c0.82-7.54-3.66-13.98-4.42-21.2
		c0.78,0.52,0.78,0.52,1.37,1.71c-0.54-6.13-5.01-10.65-6.69-16.31c0.88,0.18,1.36,0.28,2.38,1.7c0.15-0.18,0.36-0.4,0.51-0.57
		c5.85,5.89,8.05,11.62,8.79,16.31c-0.02-0.67-0.02-1.33,0.01-2c0.3,1.31,0.45,1.96,0.48,4.3l-0.01,0.26l0.01-0.65
		c0.03-10.62-7.22-27.46-41.96-47.4c0.02-0.05,0.05-0.13,0.07-0.19c0.26,0.06,27.15,9.48,39.03,33.56
		c-0.04-0.18-6.34-18.61-39.8-37.07c-7.71-4.03-18.28-9.57-30.09-11.53c-3.37-0.56-6.55-1.09-10.56-3.16l0.02-0.01
		c-1.08,0.27-2.51,0.69-3.58,0.99L41.8,105.26z"/>
</g>
</svg>
